<?xml version="1.0" encoding="utf-8"?>
<!-- Generator: Adobe Illustrator 25.2.1, SVG Export Plug-In . SVG Version: 6.00 Build 0)  -->
<svg version="1.1" id="Layer_1" xmlns="http://www.w3.org/2000/svg" xmlns:xlink="http://www.w3.org/1999/xlink" x="0px" y="0px"
	 viewBox="0 0 10 5" style="enable-background:new 0 0 10 5;" xml:space="preserve">
<style type="text/css">
	.st0{fill-rule:evenodd;clip-rule:evenodd;fill:#ED1C24;}
	.st1{fill-rule:evenodd;clip-rule:evenodd;fill:none;}
</style>
<g>
	<path class="st0" d="M0.52,5h8.38V0H1.83C1.11,0,0.52,0.59,0.52,1.31V5L0.52,5z"/>
</g>
<g>
	<rect x="3.31" y="1.95" class="st1" width="5.99" height="2.15"/>
	<path d="M3.64,2.84L3.52,3.22H3.36l0.41-1.2h0.19l0.41,1.2H4.2L4.07,2.84H3.64z M4.04,2.72L3.92,2.37C3.89,2.3,3.88,2.22,3.86,2.15
		h0C3.84,2.23,3.82,2.3,3.79,2.37L3.67,2.72H4.04z"/>
	<path d="M4.92,2.03C5,2.02,5.1,2.01,5.22,2.01c0.15,0,0.27,0.04,0.34,0.1c0.07,0.06,0.11,0.14,0.11,0.25
		c0,0.11-0.03,0.19-0.09,0.26C5.49,2.7,5.36,2.75,5.2,2.75c-0.05,0-0.09,0-0.12-0.01v0.48H4.92V2.03z M5.08,2.61
		c0.03,0.01,0.08,0.01,0.13,0.01c0.19,0,0.3-0.09,0.3-0.26c0-0.16-0.11-0.24-0.28-0.24c-0.07,0-0.12,0.01-0.15,0.01V2.61z"/>
</g>
<g>
</g>
<g>
</g>
<g>
</g>
<g>
</g>
<g>
</g>
<g>
</g>
<g>
</g>
<g>
</g>
<g>
</g>
<g>
</g>
<g>
</g>
<g>
</g>
<g>
</g>
<g>
</g>
<g>
</g>
</svg>
