<?xml version="1.0" encoding="utf-8"?>
<!-- Generator: Adobe Illustrator 25.2.1, SVG Export Plug-In . SVG Version: 6.00 Build 0)  -->
<svg version="1.1" id="Layer_1" xmlns="http://www.w3.org/2000/svg" xmlns:xlink="http://www.w3.org/1999/xlink" x="0px" y="0px"
	 viewBox="0 0 10 5" style="enable-background:new 0 0 10 5;" xml:space="preserve">
<style type="text/css">
	.st0{fill-rule:evenodd;clip-rule:evenodd;fill:#19FF00;}
	.st1{fill-rule:evenodd;clip-rule:evenodd;fill:none;}
</style>
<g>
	<path class="st0" d="M1,5h7c0.27-1.62,0.85-1.25,0.98-0.98v-2.8c0-0.54-0.44-0.98-0.98-0.98H3.23C1.99,0.29,0.95,1.4,1,2.46V5L1,5z
		"/>
</g>
<g>
	<rect x="3.66" y="2.09" class="st1" width="5.7" height="2.05"/>
	<path d="M3.79,2.15h0.15v1.03h0.49v0.12H3.79V2.15z"/>
	<path d="M5.51,2.72c0,0.4-0.24,0.61-0.54,0.61c-0.3,0-0.52-0.24-0.52-0.58c0-0.37,0.23-0.61,0.54-0.61
		C5.31,2.14,5.51,2.38,5.51,2.72z M4.62,2.74c0,0.25,0.13,0.47,0.37,0.47c0.24,0,0.37-0.22,0.37-0.48c0-0.23-0.12-0.47-0.37-0.47
		C4.74,2.26,4.62,2.48,4.62,2.74z"/>
	<path d="M5.7,2.15h0.15v1.03h0.49v0.12H5.7V2.15z"/>
</g>
<g>
</g>
<g>
</g>
<g>
</g>
<g>
</g>
<g>
</g>
<g>
</g>
<g>
</g>
<g>
</g>
<g>
</g>
<g>
</g>
<g>
</g>
<g>
</g>
<g>
</g>
<g>
</g>
<g>
</g>
</svg>
